<?xml version="1.0" encoding="utf-8"?>
<!-- Generator: Adobe Illustrator 21.0.2, SVG Export Plug-In . SVG Version: 6.00 Build 0)  -->
<svg version="1.1" id="Layer_1" xmlns="http://www.w3.org/2000/svg" xmlns:xlink="http://www.w3.org/1999/xlink" x="0px" y="0px"
	 viewBox="0 0 141 207" style="enable-background:new 0 0 141 207;" xml:space="preserve">
<style type="text/css">
	.st0{opacity:0.7;fill:#B4E5ED;}
	.st1{fill:#C42020;}
	.st2{fill:#E92C27;}
	.st3{opacity:0.9;fill:#FFFFFF;}
	.st4{fill:#FFFFFF;}
	.st5{fill:#7A0909;}
</style>
<path class="st0" d="M78.1,136.7c35.7,10,38.4,55,1.6,66.4C67,207,48.8,205,41,193.1c-4.3-6.4-4.8-15-4.2-22.4
	c0.9-9.4,7.8-13.9,9.8-20.6c2.8-9.4-9.8-34.5-13.8-45.9c-5.5-15-10.7-30-15.5-45.1c-4.4-14.1-13.5-38.2,0-51
	C32-6,50.6,7.1,56.9,21.1C72.5,55.2,72.9,100.5,78.1,136.7z"/>
<path class="st1" d="M48.9,29.9c-2.9,5.9-7.6,11-12.9,15.1c-2.5,2-5.4,3.7-8.4,5c-4.4,1.9-5.2,0.3-4.6,4.7
	c2.3,13.7,8.4,27.4,11.9,41c3.5,13.8,8.4,27.2,13,40.6c0.9,2.8,2.9,6.6,3.1,9.4c0.1,2.9-2.1,5.9-3.9,8.3c-4.4,6.7-5.6,11.9-5.6,19.9
	c0,3.1-0.5,6.7,0,9.8c0.5,3.2,2.5,6.2,4.7,8.8c4.2,5.2,8.8,6.8,15.4,7.5c14.2,1.6,29.3-5,36.7-17.5c2.9-4.8,1.9-12.2,0.5-17.7
	c-1.7-7-5-11.9-10-17c-2.5-2.5-4.2-3.9-7.4-5.5c-3.7-1.9-5.2-1.9-6.3-5.4c-2.1-6.4-1.6-14.6-2.4-21.3c-2-16.2-4.2-32.3-7.4-48.2
	c-1.5-7.4-3.1-14.6-5-21.8c-2-8-5.1-13.4-9.4-20.6C50.5,26.7,49.7,28.3,48.9,29.9z"/>
<path class="st2" d="M51.3,25.1c1.1,5.5-5.9,13.8-9.8,17c-5.5,4.6-12.2,7.4-18.6,10.2c-2-5.6,5.1-14.2,9.1-17.5
	C35.9,31.5,46.1,24.2,51.3,25.1z"/>
<circle class="st2" cx="50.1" cy="167.1" r="6"/>
<circle class="st2" cx="47.7" cy="181.7" r="3.6"/>
<rect x="18.5" y="57.7" transform="matrix(0.9512 -0.3086 0.3086 0.9512 -16.9438 12.9949)" class="st3" width="28.2" height="4.8"/>
<rect x="28.2" y="87" transform="matrix(0.9512 -0.3086 0.3086 0.9512 -25.5603 17.1828)" class="st3" width="26.8" height="4.8"/>
<rect x="35" y="105.1" transform="matrix(0.9239 -0.3826 0.3826 0.9239 -37.4437 26.6913)" class="st3" width="26.8" height="4.8"/>
<path class="st4" d="M100.3,146.4c2.8-5.1,5.6-10.2,8.4-15.4c-3.2,0-6.3-0.1-8.4-3.1c-2.3-3.1-1.9-6.3-0.4-9.5
	c1.5-3.3,2.5-5.4,6.2-5.5c4.2-0.1,5.8,0,8.8,2.7c0-6.8,4.2-15.3,12.5-11.8c3.3,1.5,4.8,3.2,5.2,6.8c0.4,4-2,5.8-4.6,8.4
	c5.2,0.9,10.2,3.9,9.2,10.2c-0.7,4.8-7.4,8-12.3,6.7c-2.8-0.7-3.9-3.5-6.2-4.7c-2.3-1.1-1.9-0.5-4.2,1.7
	C109.8,137.4,105.1,142,100.3,146.4z"/>
<path class="st4" d="M38.7,161.1c-3.2-2.9-6.4-6-9.6-9c2.3-0.8,4.4-1.6,5.4-4.2c0.9-2.7-0.1-5-1.9-6.8c-1.9-2-3.1-3.2-5.8-2.4
	c-2.9,0.8-4.2,1.3-5.6,4c-1.6-4.8-6.7-9.9-11.6-5.5c-2,1.9-2.7,3.5-2.1,6.2c0.7,2.9,2.8,3.6,5.4,5c-3.6,1.9-6.3,5.2-4.2,9.5
	c1.6,3.3,7.2,4,10.4,1.9c1.9-1.2,1.9-3.5,3.3-4.8c1.3-1.3,1.2-0.8,3.3,0.3C29.9,157.1,34.3,159.1,38.7,161.1z"/>
<path class="st5" d="M54.1,172.4c3.2-0.5,6-1.2,9.2-0.9c3.5,0.3,5.9,0.9,9.2,2.3c-4,1.3-7.5,2.8-11.2,4.7c1.3-1.5,2.7-2.9,4.2-4.3
	C62,172.8,57.9,172.8,54.1,172.4z"/>
<path class="st5" d="M92.4,162.8c-2.4,0.9-4.7,1.7-7,3.2c-2.4,1.6-3.7,3.2-5.6,5.5c3.3-0.7,6.4-1.1,9.9-1.3
	c-1.6-0.5-3.1-0.9-4.7-1.3C87,166.3,90,164.7,92.4,162.8z"/>
<path class="st5" d="M81,180.4c0,2,0.5,3.9,0.3,5.9c-0.3,2-2.5,2.9-4.3,2C73.5,186.4,78.2,178.4,81,180.4z"/>
</svg>
