<?xml version="1.0" encoding="utf-8"?>
<!-- Generator: Adobe Illustrator 21.0.2, SVG Export Plug-In . SVG Version: 6.00 Build 0)  -->
<svg version="1.1" id="Layer_1" xmlns="http://www.w3.org/2000/svg" xmlns:xlink="http://www.w3.org/1999/xlink" x="0px" y="0px"
	 viewBox="0 0 105 207" style="enable-background:new 0 0 105 207;" xml:space="preserve">
<style type="text/css">
	.st0{opacity:0.7;fill:#B4E5ED;}
	.st1{opacity:0.9;fill:#FFFFFF;}
	.st2{fill:#C42020;}
	.st3{fill:#E92C27;}
	.st4{fill:#7A0909;}
	.st5{fill:#DCF5F9;}
</style>
<path class="st0" d="M35.2,130.2c-33.8,9.5-36.3,52-1.5,62.7c12.1,3.7,29.2,1.8,36.6-9.5c4-6.1,4.6-14.1,3.9-21.1
	c-0.9-8.9-7.3-13.1-9.2-19.5c-2.6-8.9,9.2-32.6,13-43.4c5-14.1,10-28.3,14.5-42.6c4.2-13.3,12.8-36,0-48.2C78.6-4.5,61,7.8,55,21
	C40.5,53.1,40.1,95.9,35.2,130.2z"/>
<rect x="75.9" y="44.4" transform="matrix(-0.3086 0.9512 -0.9512 -0.3086 157.1813 1.2169)" class="st1" width="4.6" height="26.7"/>
<rect x="67.3" y="72.9" transform="matrix(-0.3086 0.9512 -0.9512 -0.3086 172.3739 45.711)" class="st1" width="4.6" height="25.2"/>
<rect x="60.9" y="89.9" transform="matrix(-0.3826 0.9239 -0.9239 -0.3826 182.1452 83.3599)" class="st1" width="4.6" height="25.3"/>
<path class="st2" d="M40.8,104.7c-0.8,7.1-1,14.3-1.9,21.3c-0.4,3.1-0.9,6.8-3.6,8.8c-2.6,1.9-5.6,2.9-8.2,5
	c-9.5,8.1-18.1,24.9-10,36.6c7.8,11.3,22.5,16.5,35.7,14.3c6.6-1.1,12.2-5.1,15.2-11.2c2.8-5.6,2-13.6,0.9-19.6
	c-0.7-4.1-2-7.5-4.1-11.1c-1.9-3.2-4.6-6.3-4-10.2c0.6-3.5,2.4-6.9,3.5-10.3c1.3-3.8,2.6-7.7,3.9-11.5c-5.3-0.8-10.3-2.3-15.5-3.7
	C47.8,111.7,44.2,108.7,40.8,104.7z"/>
<circle class="st3" cx="61.5" cy="158.9" r="5.7"/>
<circle class="st3" cx="63.8" cy="172.7" r="3.4"/>
<path class="st4" d="M57.8,163.8c-3-0.5-5.7-1.1-8.8-0.9c-3.4,0.2-5.6,0.9-8.8,2.1c3.8,1.2,7.1,2.6,10.7,4.4
	c-1.3-1.4-2.6-2.7-3.9-4.1C50.3,164.2,54.2,164.2,57.8,163.8z"/>
<path class="st4" d="M21.5,154.8c2.3,0.9,4.5,1.6,6.5,3c2.3,1.5,3.6,3,5.3,5.2c-3.2-0.7-6.1-1.1-9.3-1.3c1.5-0.5,3-0.9,4.5-1.3
	C26.6,158.1,23.9,156.6,21.5,154.8z"/>
<path class="st4" d="M44.5,155.1c3.7,3.4,6.6,5.2,11.7,6.6c-6.2,0.4-12.2-3.2-13.5-8.3C43.2,154,43.8,154.6,44.5,155.1z"/>
<path class="st4" d="M35.1,152.7c-4.9,1.4-8.3,1.6-13.4,0.3c5.3,3.6,12.3,3.3,15.9-1C36.8,152.2,36,152.4,35.1,152.7z"/>
<path class="st4" d="M27.7,174.4c5.7-2.5,11.8-1.3,15.2,3.8C38.4,178,32.6,175.8,27.7,174.4z"/>
<path class="st3" d="M40.9,104.8c2.6,3.1,4.9,6.4,8.5,8.5c3.7,2.2,7.5,3.6,11.7,4.4c2.3,0.5,3.7,0.8,6,0c1.2-0.4,1.7-0.8,0.8-2
	c-0.6-0.7-1.8-1.5-2.6-2c-1.9-1.1-4.1-1.7-6.1-2.5c-1.9-0.8-3.7-1.6-5.5-2.4C49.6,107,45.1,106.2,40.9,104.8z"/>
<path class="st5" d="M99.2,26.7c-0.9,11.7-6.1,22.6-6,34.1c0.1,12.1,0.9,24.1,2.4,36c1.3-6.3,2.1-12.7,2.4-19.1
	c0.3-6.5-0.4-12.6,1.2-19c2.5,3.7,1.2,10,1.2,14.3c4.5-7.2,2.7-21.1,2.4-29.2c-0.4-9-1-19-4.8-27.2C98.4,20,98.8,23.4,99.2,26.7z"/>
<path class="st5" d="M9.1,157.6c-0.5,5.7-0.1,11.1,2.1,16.5c1.7,4.3,3.2,11.4,0,15.6c-3.3-5-2.4-10.8-3.6-16.7
	c-1.5,2.2-1.2,4.6-1.2,7.1c-5.7-9.2-0.3-19.9,4.1-28.2C10,153.9,9.5,155.7,9.1,157.6z"/>
<path class="st5" d="M57,193c7.3-3,11.1-6.5,15.2-13.1c-0.2,3.9-0.6,7.3-1.6,11.1c-0.7-0.6-1.7-0.6-2.4-1.2
	c-1.7,5,0.2,10.5-3.6,14.3c-0.8-2.3-0.4-8.3-1.5-9.7c-2.5-3.1-2.1,1.2-3.6,1.3C57.6,195.9,56.8,195.2,57,193z"/>
</svg>
