<?xml version="1.0" encoding="utf-8"?>
<!-- Generator: Adobe Illustrator 21.0.2, SVG Export Plug-In . SVG Version: 6.00 Build 0)  -->
<svg version="1.1" id="Layer_1" xmlns="http://www.w3.org/2000/svg" xmlns:xlink="http://www.w3.org/1999/xlink" x="0px" y="0px"
	 viewBox="0 0 209 207" style="enable-background:new 0 0 209 207;" xml:space="preserve">
<style type="text/css">
	.st0{fill:#FEC051;}
	.st1{fill:#FFE477;}
	.st2{fill:#441F04;}
	.st3{fill:#E09A28;}
	.st4{fill:#CE6E20;}
	.st5{fill:#74CCDF;}
</style>
<path class="st0" d="M3.9,119.6c10.7-5.3,24.5-11.9,26-25.2c0.6-5.4-0.5-13.8-2.8-18.7c-2.9-6-8.5-10.6-13.2-14.9
	C41.2,74.2,68.6,87.7,96,101.1c3.9,1.9,7.8,3.9,11.8,5.8c-30.3,3.7-60.5,7.4-90.8,11.1C12.6,118.5,8.3,119.1,3.9,119.6z"/>
<path class="st0" d="M14.7,61.2c11.8,1.7,26.9,4,35.7-6c3.6-4.1,7.4-11.6,8.3-17c1-6.6-1-13.5-2.5-19.8c15,26.6,29.9,53.1,44.9,79.7
	c2.1,3.8,4.3,7.6,6.4,11.4c-27-14.1-54.1-28.1-81.1-42.2C22.4,65.2,18.5,63.2,14.7,61.2z"/>
<path class="st0" d="M56.1,18.2C65,26,76.5,36.3,89.3,32.7c5.3-1.5,12.6-5.7,16.2-9.7C110,18,112,11.1,114.3,5
	c-2,30.4-4,60.8-6,91.3c-0.3,4.4-0.6,8.7-0.9,13.1C92.4,82.8,77.5,56.2,62.5,29.6C60.4,25.8,58.3,22,56.1,18.2z"/>
<path class="st0" d="M114.2,5.9c2.9,11.5,6.6,26.4,19.2,30.7c5.2,1.8,13.6,2.4,18.9,1.2c6.5-1.5,12.1-6.1,17.4-9.8
	c-18.9,23.9-37.7,47.9-56.6,71.8c-2.7,3.4-5.4,6.9-8.1,10.3c2.7-30.4,5.4-60.7,8.1-91.1C113.4,14.6,113.8,10.3,114.2,5.9z"/>
<path class="st0" d="M169.5,27.4c-3.8,11.3-8.8,25.8-0.6,36.2c3.4,4.3,10.1,9.4,15.2,11.2c6.3,2.2,13.5,1.5,19.9,1.2
	c-28.8,9.9-57.7,19.7-86.5,29.6c-4.1,1.4-8.3,2.8-12.4,4.2c18.8-24,37.5-48.1,56.3-72.1C164.1,34.3,166.8,30.9,169.5,27.4z"/>
<path class="st0" d="M203.2,76.3c-9.5,7.1-21.9,16.2-20.9,29.5c0.4,5.5,3,13.5,6.2,17.9c3.9,5.4,10.3,8.8,15.8,12.2
	c-29.4-8.2-58.7-16.4-88.1-24.5c-4.2-1.2-8.4-2.3-12.6-3.5c29.1-9.2,58.1-18.4,87.2-27.6C194.9,78.9,199.1,77.6,203.2,76.3z"/>
<path class="st0" d="M82.8,202c-1.5-11.8-3.3-27-15.3-32.8c-4.9-2.4-13.2-4.1-18.6-3.5c-6.6,0.7-12.8,4.6-18.5,7.6
	c21.7-21.5,43.3-42.9,65-64.4c3.1-3.1,6.2-6.2,9.3-9.2c-6.4,29.8-12.8,59.6-19.2,89.4C84.7,193.4,83.7,197.7,82.8,202z"/>
<path class="st0" d="M31.2,172.7c5.5-10.6,12.6-24.1,6-35.7c-2.7-4.7-8.6-10.8-13.4-13.4c-5.9-3.1-13.1-3.5-19.5-4.2
	c30-5.4,60-10.9,90-16.3c4.3-0.8,8.6-1.6,12.9-2.3c-22.2,21-44.3,41.9-66.5,62.9C37.5,166.7,34.3,169.7,31.2,172.7z"/>
<path class="st0" d="M188.6,159.2c-11.5-3-26.3-7-36.1,2c-4,3.7-8.7,10.7-10.1,16c-1.8,6.4-0.5,13.5,0.2,20
	C130.7,169,118.8,141,107,112.9c-1.7-4-3.4-8.1-5.1-12.1c25.3,17,50.6,34,75.9,51C181.4,154.3,185,156.7,188.6,159.2z"/>
<path class="st0" d="M142.3,196.3c-7.8-9-17.7-20.7-30.9-18.8c-5.4,0.8-13.2,3.9-17.4,7.5c-5.1,4.3-8.1,10.9-11.1,16.6
	c6.1-29.9,12.2-59.8,18.3-89.6c0.9-4.3,1.7-8.6,2.6-12.9c11.2,28.3,22.5,56.7,33.7,85C139.1,188.1,140.7,192.2,142.3,196.3z"/>
<path class="st0" d="M188.6,159.1c-4.5-5.2-11.6-12.9-5.9-20.1c4.7-6,15.4-3.8,21.7-3c-30-9.8-60.1-19.5-90.1-29.3
	C138,124.8,161,147.4,188.6,159.1z"/>
<circle class="st1" cx="105" cy="104.1" r="56.7"/>
<path class="st2" d="M100,78.5C89,78,79,84.4,71.9,92.6C73.7,80.5,89.6,68.9,100,78.5z"/>
<path class="st2" d="M148.6,75.1c-9.6-2.6-19.6,0.8-27.3,6C125.1,71.6,141.2,65.3,148.6,75.1z"/>
<path class="st0" d="M133.9,103.8c-12.4,6.2-25.5-6.3-38.8-2.8c-12.7,3.4-16.1,21.3-8.9,31.2c4.3,5.9,9.6,6.6,16.7,5.4
	c6.4-1,11.8-2.2,18.3-2.8c8-0.8,10.5-3.1,13.4-10.6C137.3,117,133.9,111.7,133.9,103.8z"/>
<path class="st3" d="M114.2,109.5c0,1.8-0.3,3.9,0,5.7c0.3,2,1.6,3.8,1.9,5.8c0.3,1.7,0.2,3.2-0.6,4.6c-0.3,0.6-2,2.4-2.7,2.7
	c-1.3,0.5-0.4,0.3-2.1-0.1c-5.2-1.3-1.1-7.5-0.5-10.7c0.2-1.3,0.3-3.1-0.1-4.4c-0.9-3.2-1.9-4.2-4.7-2.2c-5.3,3.8-7.8,15.6-2.6,20.2
	c2.7,2.4,6.5,3.2,10.1,3.5c4.4,0.4,7.1-0.6,9.2-4.6c2-3.8,2.2-8.4,1.2-12.4c-0.7-2.8-1.4-4.3-3.4-6.2
	C117.9,109.3,117.2,109.5,114.2,109.5z"/>
<path class="st4" d="M126.9,133.7c-8.3-8.7-22-4.3-28.7,4.4C107.3,136.8,118.3,136.7,126.9,133.7z"/>
<ellipse transform="matrix(0.9119 -0.4104 0.4104 0.9119 -31.6895 37.7375)" class="st5" cx="72.1" cy="92.7" rx="3.3" ry="2.1"/>
</svg>
