<?xml version="1.0" encoding="utf-8"?>
<!-- Generator: Adobe Illustrator 21.0.2, SVG Export Plug-In . SVG Version: 6.00 Build 0)  -->
<svg version="1.1" id="Layer_1" xmlns="http://www.w3.org/2000/svg" xmlns:xlink="http://www.w3.org/1999/xlink" x="0px" y="0px"
	 viewBox="0 0 220 209" style="enable-background:new 0 0 220 209;" xml:space="preserve">
<style type="text/css">
	.st0{fill:#FEC051;}
	.st1{fill:#FFE477;}
	.st2{fill:#441F04;}
	.st3{clip-path:url(#SVGID_2_);fill:#7E2BBF;}
	.st4{clip-path:url(#SVGID_2_);fill:#F0E1FF;}
	.st5{fill:#F9F9F9;}
</style>
<path class="st0" d="M98.7,205c-3.5-11.4-7.8-26.1-20.6-29.8c-5.3-1.5-13.7-1.8-18.9-0.3c-6.4,1.8-11.8,6.7-16.9,10.6
	C60,160.8,77.7,136,95.5,111.2c2.5-3.6,5.1-7.1,7.6-10.7c-1.3,30.5-2.5,60.9-3.8,91.4C99.1,196.3,98.9,200.6,98.7,205z"/>
<path class="st0" d="M42.9,184.9c3.6-11.3,8.3-25.9-0.1-36.2c-3.5-4.2-10.3-9.2-15.4-10.9c-6.3-2.1-13.5-1.2-19.9-0.8
	c28.6-10.4,57.3-20.9,85.9-31.3c4.1-1.5,8.2-3,12.3-4.5C87.3,125.6,69,150,50.7,174.4C48.1,177.9,45.5,181.4,42.9,184.9z"/>
<path class="st0" d="M7.2,137c9.2-7.5,21.2-17.2,19.7-30.4c-0.6-5.4-3.6-13.3-7-17.6c-4.1-5.2-10.6-8.4-16.3-11.6
	C33.3,84.4,63,91.3,92.7,98.3c4.3,1,8.5,2,12.8,3c-28.7,10.4-57.3,20.9-86,31.3C15.4,134,11.3,135.5,7.2,137z"/>
<path class="st0" d="M4,78.3c11.9-0.9,27.2-1.8,33.4-12.9c2.5-4.6,4.5-12.3,4.1-17.4c-0.5-6.3-4.1-12.3-7-17.8
	C55.3,51.7,76,73.1,96.8,94.6c3,3.1,6,6.2,8.9,9.2c-29.7-7.4-59.3-14.9-89-22.3C12.5,80.5,8.3,79.4,4,78.3z"/>
<path class="st0" d="M192.9,140.6c-11.9-0.5-27.2-1.2-34.9,9.7c-3.1,4.5-6.2,12.3-6.4,17.8c-0.3,6.6,2.4,13.3,4.5,19.4
	c-17.6-24.9-35.3-49.7-52.9-74.6c-2.5-3.6-5.1-7.1-7.6-10.7c28.4,11.2,56.7,22.3,85.1,33.5C184.7,137.4,188.8,139,192.9,140.6z"/>
<path class="st0" d="M155.6,186.8c-9.5-7.1-21.8-16.4-34.2-11.7c-5.1,1.9-12.1,6.7-15.4,11c-4,5.3-5.5,12.4-7.3,18.6
	c-0.5-30.5-1-61-1.5-91.5c-0.1-4.4-0.1-8.7-0.2-13.1c17.1,25.3,34.1,50.5,51.2,75.8C150.7,179.5,153.1,183.2,155.6,186.8z"/>
<path class="st0" d="M196.9,81c-10.1,6.2-23.3,14.1-23.6,27.4c-0.1,5.5,1.7,13.7,4.5,18.4c3.4,5.7,9.4,9.7,14.6,13.7
	c-28.5-10.9-57-21.7-85.5-32.6c-4.1-1.6-8.2-3.1-12.3-4.7c29.8-6.5,59.6-13,89.4-19.4C188.3,82.8,192.6,81.9,196.9,81z"/>
<ellipse transform="matrix(0.1626 -0.9867 0.9867 0.1626 -17.7288 184.637)" class="st1" cx="99.9" cy="102.8" rx="56.7" ry="56.7"/>
<path class="st2" d="M96.6,116.3c9.2,4.6,15.6,5.6,25.4,2.3c-10.2,10.2-23.4,8.5-30-4.6C93.5,114.8,95.1,115.5,96.6,116.3z"/>
<path class="st2" d="M74.1,111.8c-8.4-2-13.1-4.9-17.7-12.2c1.1,12.1,10.6,18.2,21.9,13.3C76.9,112.5,75.5,112.1,74.1,111.8z"/>
<g>
	<defs>
		<path id="SVGID_1_" d="M64.7,37.6C89,59.2,118.2,68.3,149.1,75c6.7,1.4,12.6,4.4,18.5,7.9c2.8,1.7,8.2,4.1,10.1,6.7
			c2.2,2.9,1.6,8.8,2.8,12.4c1.1,3.2,3,6,4.7,8.9c1.3,2.2,5.4,6.9,5.7,9c0.7,4.1-3.8,6.3-4.4,9.8c-0.6,3.4,1.5,6.8,3.3,9.4
			c1.8,2.7,4.9,7.1,8.2,8c1.8,0.5,2.3,1.5,4-0.3c2.6-2.9-0.9-2.7-1.4-5.4c-0.8-4.3,1.5-6.2,4.6-8.7c4.3-3.5,4.4-5.2,5.2-11
			c0.6-4.4,0.3-6-2.1-10c-2.2-3.8-6.4-5.6-8.6-9.2c-3-4.9-1-14.7-0.4-20.6c0.8-7.2-0.3-13.9-2.6-20.7c-2.7-7.8-7.1-11.7-11.8-18.1
			c-10.3-13.9-20.7-23.7-35-33.2c-6.8-4.5-13.5-4.9-21.8-4.8c-9.8,0.1-16.9,0.9-24.8,6.5c-6.1,4.3-12,12.3-18.6,14.7
			c-3.9,1.4-8.7,0.9-12.4,2.7C68.6,30.8,66.8,34.2,64.7,37.6z"/>
	</defs>
	<clipPath id="SVGID_2_">
		<use xlink:href="#SVGID_1_"  style="overflow:visible;"/>
	</clipPath>
	<path class="st3" d="M64.7,37.6C89,59.2,118.2,68.3,149.1,75c6.7,1.4,12.6,4.4,18.5,7.9c2.8,1.7,8.2,4.1,10.1,6.7
		c2.2,2.9,1.6,8.8,2.8,12.4c1.1,3.2,3,6,4.7,8.9c1.3,2.2,5.4,6.9,5.7,9c0.7,4.1-3.8,6.3-4.4,9.8c-0.6,3.4,1.5,6.8,3.3,9.4
		c1.8,2.7,4.9,7.1,8.2,8c1.8,0.5,2.3,1.5,4-0.3c2.6-2.9-0.9-2.7-1.4-5.4c-0.8-4.3,1.5-6.2,4.6-8.7c4.3-3.5,4.4-5.2,5.2-11
		c0.6-4.4,0.3-6-2.1-10c-2.2-3.8-6.4-5.6-8.6-9.2c-3-4.9-1-14.7-0.4-20.6c0.8-7.2-0.3-13.9-2.6-20.7c-2.7-7.8-7.1-11.7-11.8-18.1
		c-10.3-13.9-20.7-23.7-35-33.2c-6.8-4.5-13.5-4.9-21.8-4.8c-9.8,0.1-16.9,0.9-24.8,6.5c-6.1,4.3-12,12.3-18.6,14.7
		c-3.9,1.4-8.7,0.9-12.4,2.7C68.6,30.8,66.8,34.2,64.7,37.6z"/>
	<path class="st4" d="M114.5,15.1c1,4.9-2,9.8-6.8,10.8s-9.5-2.1-10.6-7c-1-4.9,2-9.8,6.8-10.8C108.7,7,113.4,10.2,114.5,15.1z"/>
	<path class="st4" d="M132.7,36.7c1,4.9-2,9.8-6.8,10.8c-4.8,1.1-9.5-2.1-10.6-7c-1-4.9,2-9.8,6.8-10.8
		C126.9,28.7,131.6,31.8,132.7,36.7z"/>
	<path class="st4" d="M102.3,43.4c1,4.9-2,9.8-6.8,10.8c-4.8,1.1-9.5-2.1-10.6-7s2-9.8,6.8-10.8S101.2,38.5,102.3,43.4z"/>
	<path class="st4" d="M133.1,59.9c1,4.9-2,9.8-6.8,10.8c-4.8,1.1-9.5-2.1-10.6-7s2-9.8,6.8-10.8S132,55,133.1,59.9z"/>
	<path class="st4" d="M180.9,82c1,4.9-2,9.8-6.8,10.8c-4.8,1.1-9.5-2.1-10.6-7c-1-4.9,2-9.8,6.8-10.8C175.1,74,179.9,77.1,180.9,82z
		"/>
	<path class="st4" d="M182.3,35.1c1,4.9-2,9.8-6.8,10.8s-9.5-2.1-10.6-7s2-9.8,6.8-10.8S181.3,30.2,182.3,35.1z"/>
	<path class="st4" d="M83.3,28.9c1,4.9-2,9.8-6.8,10.8c-4.8,1.1-9.5-2.1-10.6-7s2-9.8,6.8-10.8S82.3,24,83.3,28.9z"/>
	<path class="st4" d="M153.9,48.4c4.9-0.7,9.4,2.7,10.1,7.7s-2.6,9.6-7.5,10.3s-9.4-2.7-10.1-7.7S149.1,49.1,153.9,48.4z"/>
	<path class="st4" d="M153.3,15.9c1,4.9-2,9.8-6.8,10.8c-4.8,1.1-9.5-2.1-10.6-7s2-9.8,6.8-10.8S152.2,11,153.3,15.9z"/>
	<path class="st4" d="M197.2,62.2c1,4.9-2,9.8-6.8,10.8c-4.8,1.1-9.5-2.1-10.6-7c-1-4.9,2-9.8,6.8-10.8S196.1,57.3,197.2,62.2z"/>
	<path class="st4" d="M204.7,97.8c1,4.9-2,9.8-6.8,10.8c-4.8,1.1-9.5-2.1-10.6-7c-1-4.9,2-9.8,6.8-10.8
		C198.9,89.7,203.7,92.9,204.7,97.8z"/>
	<path class="st4" d="M199.5,126.9c1,4.9-2,9.8-6.8,10.8c-4.8,1.1-9.5-2.1-10.6-7c-1-4.9,2-9.8,6.8-10.8
		C193.7,118.8,198.5,122,199.5,126.9z"/>
</g>
<path class="st5" d="M65,37.6c18.4,16.1,38.9,24.6,62,31.4c9.9,2.9,20.8,3.6,30.3,7.3c5,1.9,10,4.8,14.6,7.7
	c7.4,4.6,8.1,5.2,9.9,13.7c1.2,5.9,5.7,9.8,7.2,15.3c1.3,5.1-4.2,6.5-9.4,6.6c-10.5,0.1-22.6-5.1-32.5-8.2
	c-22.1-7-44.6-13.9-64.8-25.2c-10.6-5.9-22.5-13.3-30.4-22.7C41.8,51.3,52.8,40.1,65,37.6z"/>
<ellipse transform="matrix(0.9825 -0.1862 0.1862 0.9825 -24.9866 40.5277)" class="st5" cx="203.2" cy="153.3" rx="10.4" ry="9.4"/>
</svg>
