<?xml version="1.0" encoding="utf-8"?>
<!-- Generator: Adobe Illustrator 21.0.2, SVG Export Plug-In . SVG Version: 6.00 Build 0)  -->
<svg version="1.1" id="Layer_1" xmlns="http://www.w3.org/2000/svg" xmlns:xlink="http://www.w3.org/1999/xlink" x="0px" y="0px"
	 viewBox="0 0 168 177" style="enable-background:new 0 0 168 177;" xml:space="preserve">
<style type="text/css">
	.st0{fill:#E92C27;}
</style>
<rect x="73.8" y="42.8" transform="matrix(0.882 0.4713 -0.4713 0.882 55.6297 -24.7876)" class="st0" width="7.1" height="111.7"/>
<path class="st0" d="M47.9,146.3c-2.1,3.9-4.1,7.8-6.2,11.6c-2.2,4-4.1,8.7-9.6,9.2c-1.3,0.1-2.8,0.5-4.1,0.3
	c-1.3-0.2-2.9-0.9-4.2-1.3c-2.1-0.7-4.2-1.8-5.9-3.2c-2.1-1.7-4.1-3.3-4.6-5.9c-0.3-1.3-0.3-2.4-0.1-3.7c0.2-1.3,1.1-2.1,1.4-3.2
	c0.1-0.5,0.3-0.4,0.1-0.7c-0.3-0.4-1.8-1-2.2-1.2c-0.8-0.4-2.3-1.6-2.9-1.3c-0.4,0.2-0.7,1.4-0.9,1.7c-0.4,0.7-0.8,1.5-1.2,2.2
	c-0.4,0.9-0.7,2-0.8,3c-0.2,2.1,1.1,5,2.1,7c1,2,2.9,3.8,4.7,5.2c2,1.7,4.1,2.7,6.4,4c2.5,1.3,4.8,2.8,7.5,3.6
	c4.9,1.4,11,0.3,14.7-2.4c1.3-0.9,2.2-2.5,2.9-3.9c1.3-2.4,2.6-4.8,3.9-7.2c1.5-2.8,3-5.6,4.5-8.3c0.2-0.3,1.1-1.6,1-1.9
	c-0.1-0.4-2.1-1.2-2.5-1.4C50.3,147.6,49.1,146.9,47.9,146.3z"/>
<path class="st0" d="M9.8,146.5l5,2.7c0.5,0.3,0.7,0.9,0.4,1.4l-1.1,2c-0.3,0.5-0.9,0.7-1.4,0.4l-5-2.7c-0.5-0.3-0.7-0.9-0.4-1.4
	l1.1-2C8.7,146.4,9.3,146.2,9.8,146.5z"/>
<path class="st0" d="M121.3,18.8c14.1,10.6,25.6,22.2,34,37.8c7.6,14.1,9.9,28.8,10,44.6c0.1,10.6-0.1,20.2-3.2,30.3
	c-2.4-5.2-3.8-8.8-8.1-12.3c-5-4.1-8.1-5.6-14.3-7.5c-10-3.1-20.8-5.5-31.2-3.2c-1.8-8.3-3.8-15.4-8.8-22.5
	c-2.5-3.6-7.3-7.2-9.1-11.2c-1.2-2.6-0.7-2.3,1-5.2C101.5,52.6,111.4,35.7,121.3,18.8z"/>
<path class="st0" d="M121.4,18.9c-16.6-5.8-32.7-8.9-50.4-7.2c-16,1.5-29.5,7.8-42.7,16.5C19.6,34,11.6,39.5,5,47.6
	c5.6-0.9,9.4-1.7,14.8-0.1c6.2,1.9,9.1,3.7,14.2,7.8c8.1,6.6,16.2,14.2,20,24.1c7.9-3.1,14.9-5.4,23.6-5.2c4.4,0.1,10,2,14.4,1.3
	c2.8-0.4,2.3-0.7,3.8-3.7C104.3,54.2,112.9,36.5,121.4,18.9z"/>
<path class="st0" d="M123.4,20.4"/>
<polygon class="st0" points="121,24.1 118,22.5 114.9,20.9 121.3,12.4 127.6,4 124.3,14 "/>
</svg>
