<?xml version="1.0" encoding="utf-8"?>
<!-- Generator: Adobe Illustrator 21.0.2, SVG Export Plug-In . SVG Version: 6.00 Build 0)  -->
<svg version="1.1" id="Layer_1" xmlns="http://www.w3.org/2000/svg" xmlns:xlink="http://www.w3.org/1999/xlink" x="0px" y="0px"
	 viewBox="0 0 258 224" style="enable-background:new 0 0 258 224;" xml:space="preserve">
<style type="text/css">
	.st0{clip-path:url(#SVGID_2_);fill:#9CDCE2;}
	.st1{clip-path:url(#SVGID_2_);fill:#FEC051;}
	.st2{clip-path:url(#SVGID_2_);fill:#FFE477;}
	.st3{clip-path:url(#SVGID_2_);fill:#441F04;}
	.st4{clip-path:url(#SVGID_2_);fill:#C1BCB0;}
	.st5{clip-path:url(#SVGID_2_);fill:#DCD9D0;}
</style>
<g>
	<defs>
		<circle id="SVGID_1_" cx="126.5" cy="110.5" r="103.5"/>
	</defs>
	<clipPath id="SVGID_2_">
		<use xlink:href="#SVGID_1_"  style="overflow:visible;"/>
	</clipPath>
	<circle class="st0" cx="126.5" cy="109.5" r="103.5"/>
	<path class="st1" d="M19,151.4c11.3-5.6,25.9-12.6,27.5-26.6c0.7-5.8-0.5-14.6-3-19.8c-3-6.4-9-11.2-14-15.8
		c29,14.2,58,28.5,86.9,42.7c4.2,2,8.3,4.1,12.5,6.1c-32.1,3.9-64.1,7.8-96.2,11.8C28.1,150.2,23.5,150.8,19,151.4z"/>
	<path class="st1" d="M30.3,89.5c12.5,1.8,28.5,4.2,37.8-6.4c3.8-4.4,7.9-12.3,8.8-18c1.1-7-1.1-14.3-2.6-21
		c15.8,28.1,31.7,56.3,47.5,84.4c2.3,4,4.5,8.1,6.8,12.1c-28.6-14.9-57.3-29.8-85.9-44.7C38.6,93.8,34.4,91.7,30.3,89.5z"/>
	<path class="st1" d="M74.2,44c9.4,8.3,21.6,19.2,35.1,15.3c5.6-1.6,13.3-6,17.2-10.3c4.7-5.2,6.9-12.6,9.3-19
		c-2.1,32.2-4.3,64.4-6.4,96.7c-0.3,4.6-0.6,9.2-0.9,13.9C112.7,112.4,96.9,84.2,81,56.1C78.8,52.1,76.5,48,74.2,44z"/>
	<path class="st1" d="M135.7,31c3.1,12.2,6.9,28,20.3,32.5c5.5,1.9,14.4,2.6,20,1.2c6.9-1.6,12.8-6.4,18.4-10.4
		c-20,25.4-40,50.7-60,76.1c-2.9,3.6-5.7,7.3-8.6,10.9c2.9-32.2,5.7-64.3,8.6-96.5C134.9,40.2,135.3,35.6,135.7,31z"/>
	<path class="st1" d="M194.3,53.8c-4,11.9-9.4,27.3-0.6,38.3c3.6,4.5,10.7,10,16.1,11.9c6.6,2.4,14.3,1.5,21.1,1.2
		c-30.5,10.5-61.1,20.9-91.6,31.4c-4.4,1.5-8.8,3-13.1,4.5c19.9-25.5,39.7-50.9,59.6-76.4C188.6,61.1,191.5,57.4,194.3,53.8z"/>
	<path class="st1" d="M230,105.5c-10.1,7.5-23.2,17.2-22.2,31.2c0.4,5.8,3.2,14.3,6.6,18.9c4.1,5.7,10.9,9.3,16.7,13
		c-31.1-8.7-62.2-17.3-93.3-26c-4.5-1.2-8.9-2.5-13.4-3.7c30.8-9.7,61.6-19.5,92.4-29.2C221.2,108.3,225.6,106.9,230,105.5z"/>
	<circle class="st2" cx="126" cy="135" r="60"/>
	<path class="st3" d="M104,108c3.9,0,8.1,0,11.8,1.4c2,0.8,4.1,2.2,6.3,2.6c2.6,0.5,3.9-0.7,5.9-2c-0.8,0.3-2.1,1-2.9,1
		c-0.9,0-2.2-0.7-3-1c-1.8-0.7-3.5-1.6-5.3-2.1C112.2,106.7,108.4,106.9,104,108z"/>
	<path class="st3" d="M122,117.6c-8-0.8-18.3-2.1-25,3.2c9.2,1.8,18.7,2.3,28,0.8c-5.1,2-10.2,2.5-15.6,2.1
		c-5.7-0.5-11-0.8-16.4-2.9c3.6-2.9,9.5-4.3,14-4.8c2.5-0.3,5.2,0,7.7,0C117.4,116,119.5,116.8,122,117.6z"/>
	<ellipse class="st3" cx="114.5" cy="119.5" rx="5.5" ry="3.5"/>
	<path class="st3" d="M136,145c-1.1-1.1-0.8-0.9-2-0.5c-0.8,0.3-1.4,0.9-2,1.5c-1.1,1.2-2,2.7-3,4c0-3.1,1.4-8.2,5-9
		c1.9-0.4,3.1,0.7,4.1,2.1c1.3,1.8,0.9,3.7,0.9,5.9C138.1,147.3,137.4,146.4,136,145z"/>
	<path class="st3" d="M161.9,108c-3.6,0-7.4,0-10.8,1.4c-1.9,0.8-3.8,2.2-5.7,2.6c-2.3,0.5-3.6-0.7-5.4-2c0.8,0.3,1.9,1,2.7,1
		c0.8,0,2-0.7,2.7-1c1.6-0.7,3.2-1.6,4.9-2.1C154.4,106.7,157.9,106.9,161.9,108z"/>
	<path class="st3" d="M145.5,117.6c7.3-0.8,16.8-2.1,22.9,3.2c-8.4,1.8-17.1,2.3-25.6,0.8c4.7,2,9.3,2.5,14.3,2.1
		c5.2-0.5,10.1-0.8,15-2.9c-3.3-2.9-8.7-4.3-12.8-4.8c-2.3-0.3-4.8,0-7.1,0C149.7,116,147.8,116.8,145.5,117.6z"/>
	<ellipse class="st3" cx="152.3" cy="119.5" rx="5" ry="3.5"/>
	<path class="st4" d="M242,116c-5.3,0-11.6-0.4-16.4,2.4c-2.1,1.2-4.8,5.5-7,5.3c-1.3-0.1-3-2.7-4.2-3.4c-1.1-0.6-2.2-0.8-3.4-1.1
		c-5.8-1.5-11.4-0.8-17.3,0.9c-6.9,2-11.4,5-16.1,10.3c-4.7,5.2-3.1,11.4-1.6,17.6c-11.5-4.6-27.9-1.3-38.6,4.8
		c-5.2,3-9.4,8.2-12.7,13.1c-4.1,6.1-4.7,10.8-4.7,18.1c-5.1-2.5-9.3-5.3-15.3-4c-1.9,0.4-4.6,2.1-6.1,3.6c-1.8,1.8-1.7,4.9-3.4,6.8
		c-1.5,1.6-4.1,1.3-6.1,2.5c-1.7,1.1-4,4.2-5.1,5.9c-2.5,4.1-3.8,8.9-3.1,13.7c0.7,5.3,4.9,8,8.8,11.1c4,3.2,5.4,3.5,10.4,4.4
		c7.2,1.2,14.5,2.4,21.7,3.6c2.8,0.5,5.8,1.3,8.6,1.2c4.2-0.2,8.6-1.6,12.8-2.3c7.3-1.3,14.6-2.6,21.9-4c7-1.3,13.9-2.5,20.9-3.8
		c2.9-0.5,7.1-0.5,9.8-1.8c4-1.9,8.1-7.1,11.4-10c2.9-2.5,5.7-5,8.5-7.6c5.2-4.8,10.5-9.5,15.7-14.3c2.4-2.2,3.4-2.9,4.4-5.9
		c4.7-14.1,9.4-28.1,14.1-42.2c0.9-2.7,3.2-6.9,2.6-9.6c-0.6-2.8-4.4-6.4-6-8.8C245.1,120.4,243.5,118.2,242,116z"/>
	<path class="st5" d="M15,116c5.3,0,11.6-0.4,16.4,2.4c2.1,1.2,4.8,5.5,7,5.3c1.3-0.1,3-2.7,4.2-3.4c1.1-0.6,2.2-0.8,3.4-1.1
		c5.8-1.5,11.4-0.8,17.3,0.9c6.9,2,11.4,5,16.1,10.3c4.7,5.2,3.1,11.4,1.6,17.6c11.5-4.6,27.9-1.3,38.6,4.8c5.2,3,9.4,8.2,12.7,13.1
		c4.1,6.1,4.7,10.8,4.7,18.1c5.1-2.5,9.3-5.3,15.3-4c1.9,0.4,4.6,2.1,6.1,3.6c1.8,1.8,1.7,4.9,3.4,6.8c1.5,1.6,4.1,1.3,6.1,2.5
		c1.7,1.1,4,4.2,5.1,5.9c2.5,4.1,3.8,8.9,3.1,13.7c-0.7,5.3-4.9,8-8.8,11.1c-4,3.2-5.4,3.5-10.4,4.4c-7.2,1.2-14.5,2.4-21.7,3.6
		c-2.8,0.5-5.8,1.3-8.6,1.2c-4.2-0.2-8.6-1.6-12.8-2.3c-7.3-1.3-14.6-2.6-21.9-4c-7-1.3-13.9-2.5-20.9-3.8c-2.9-0.5-7.1-0.5-9.8-1.8
		c-4-1.9-8.1-7.1-11.4-10c-2.9-2.5-5.7-5-8.5-7.6c-5.2-4.8-10.5-9.5-15.7-14.3c-2.4-2.2-3.4-2.9-4.4-5.9
		C16.4,169.2,11.7,155.1,7,141c-0.9-2.7-3.2-6.9-2.6-9.6c0.6-2.8,4.4-6.4,6-8.8C11.9,120.4,13.5,118.2,15,116z"/>
</g>
</svg>
